<mxfile host="app.diagrams.net" modified="2022-09-05T09:19:10.253Z" agent="5.0 (Macintosh; Intel Mac OS X 10_15_7) AppleWebKit/537.36 (KHTML, like Gecko) Chrome/104.0.5112.101 Safari/537.36" etag="-Z_KOfHb0xCN6BPU5Chz" version="19.0.2" type="github" pages="2">
  <diagram id="OHeU5dBXho-fawMFDghb" name="架构类关系">
    <mxGraphModel dx="3553" dy="2550" grid="1" gridSize="10" guides="1" tooltips="1" connect="1" arrows="1" fold="1" page="0" pageScale="1" pageWidth="827" pageHeight="1169" background="#FFFFFF" math="0" shadow="0">
      <root>
        <mxCell id="0" />
        <mxCell id="1" parent="0" />
        <mxCell id="1xvhB_tAIBuY2R_2G-_f-2" value="&lt;p style=&quot;margin:0px;margin-top:4px;text-align:center;&quot;&gt;&lt;i&gt;&amp;lt;&amp;lt;Interface&amp;gt;&amp;gt;&lt;/i&gt;&lt;br&gt;&lt;b&gt;MetadataManager&lt;/b&gt;&lt;/p&gt;&lt;hr size=&quot;1&quot;&gt;&lt;p style=&quot;margin:0px;margin-left:4px;&quot;&gt;&lt;/p&gt;&amp;nbsp; +&amp;nbsp;&lt;span style=&quot;background-color: initial;&quot;&gt;&amp;lt;T extends Metadata&amp;gt; List&amp;lt;T&amp;gt; find(Class&amp;lt;T&amp;gt; metadataClass, AppContext appContext, String... fullNames);&lt;/span&gt;&lt;div&gt;&lt;span style=&quot;background-color: initial;&quot;&gt;&amp;nbsp; + void create(Metadata metadata, AppContext appContext);&lt;/span&gt;&lt;/div&gt;&lt;div&gt;&lt;span style=&quot;background-color: initial;&quot;&gt;&amp;nbsp; + void update(Metadata metadata, AppContext appContext);&lt;/span&gt;&lt;/div&gt;&lt;div&gt;&lt;span style=&quot;background-color: initial;&quot;&gt;&amp;nbsp; + &amp;lt;T extends Metadata&amp;gt; void delete(Class&amp;lt;T&amp;gt; metadataClass, AppContext appContext, String... fullNames);&lt;/span&gt;&lt;/div&gt;" style="verticalAlign=top;align=left;overflow=fill;fontSize=12;fontFamily=Helvetica;html=1;" parent="1" vertex="1">
          <mxGeometry x="174" y="610" width="600" height="110" as="geometry" />
        </mxCell>
        <mxCell id="BnRPWy6Q7r4k3ze5cMtO-7" style="edgeStyle=orthogonalEdgeStyle;rounded=0;orthogonalLoop=1;jettySize=auto;html=1;exitX=0.5;exitY=1;exitDx=0;exitDy=0;entryX=0.5;entryY=0;entryDx=0;entryDy=0;fontFamily=Helvetica;fontSize=12;fontColor=default;" parent="1" source="BnRPWy6Q7r4k3ze5cMtO-2" target="BnRPWy6Q7r4k3ze5cMtO-5" edge="1">
          <mxGeometry relative="1" as="geometry" />
        </mxCell>
        <mxCell id="BnRPWy6Q7r4k3ze5cMtO-8" style="edgeStyle=orthogonalEdgeStyle;rounded=0;orthogonalLoop=1;jettySize=auto;html=1;exitX=0.5;exitY=1;exitDx=0;exitDy=0;entryX=0.5;entryY=0;entryDx=0;entryDy=0;fontFamily=Helvetica;fontSize=12;fontColor=default;" parent="1" source="BnRPWy6Q7r4k3ze5cMtO-2" target="BnRPWy6Q7r4k3ze5cMtO-3" edge="1">
          <mxGeometry relative="1" as="geometry" />
        </mxCell>
        <mxCell id="BnRPWy6Q7r4k3ze5cMtO-9" style="edgeStyle=orthogonalEdgeStyle;rounded=0;orthogonalLoop=1;jettySize=auto;html=1;exitX=0.5;exitY=1;exitDx=0;exitDy=0;entryX=0.5;entryY=0;entryDx=0;entryDy=0;fontFamily=Helvetica;fontSize=12;fontColor=default;" parent="1" source="BnRPWy6Q7r4k3ze5cMtO-2" target="BnRPWy6Q7r4k3ze5cMtO-6" edge="1">
          <mxGeometry relative="1" as="geometry" />
        </mxCell>
        <mxCell id="BnRPWy6Q7r4k3ze5cMtO-2" value="«interface»&lt;br&gt;&lt;b&gt;TenantApplication&lt;/b&gt;" style="html=1;fontFamily=Helvetica;fontSize=12;fontColor=default;strokeColor=default;fillColor=default;" parent="1" vertex="1">
          <mxGeometry x="335" y="380" width="110" height="50" as="geometry" />
        </mxCell>
        <mxCell id="BnRPWy6Q7r4k3ze5cMtO-3" value="«interface»&lt;br&gt;&lt;b&gt;MetadataManager&lt;/b&gt;" style="html=1;fontFamily=Helvetica;fontSize=12;fontColor=default;strokeColor=default;fillColor=default;" parent="1" vertex="1">
          <mxGeometry x="174" y="500" width="130" height="50" as="geometry" />
        </mxCell>
        <mxCell id="BnRPWy6Q7r4k3ze5cMtO-5" value="«interface»&lt;br&gt;&lt;b&gt;ObjectManager&lt;/b&gt;" style="html=1;fontFamily=Helvetica;fontSize=12;fontColor=default;strokeColor=default;fillColor=default;" parent="1" vertex="1">
          <mxGeometry x="325" y="500" width="130" height="50" as="geometry" />
        </mxCell>
        <mxCell id="BnRPWy6Q7r4k3ze5cMtO-6" value="«interface»&lt;br&gt;&lt;b&gt;AuthManager&lt;/b&gt;" style="html=1;fontFamily=Helvetica;fontSize=12;fontColor=default;strokeColor=default;fillColor=default;" parent="1" vertex="1">
          <mxGeometry x="470" y="500" width="130" height="50" as="geometry" />
        </mxCell>
        <mxCell id="BnRPWy6Q7r4k3ze5cMtO-10" value="&lt;p style=&quot;margin:0px;margin-top:4px;text-align:center;&quot;&gt;&lt;i&gt;&amp;lt;&amp;lt;Interface&amp;gt;&amp;gt;&lt;/i&gt;&lt;br&gt;&lt;b&gt;ObjectManager&lt;/b&gt;&lt;/p&gt;&lt;p style=&quot;margin:0px;margin-left:4px;&quot;&gt;&lt;/p&gt;" style="verticalAlign=top;align=left;overflow=fill;fontSize=12;fontFamily=Helvetica;html=1;" parent="1" vertex="1">
          <mxGeometry x="40" y="890" width="330" height="40" as="geometry" />
        </mxCell>
        <mxCell id="BnRPWy6Q7r4k3ze5cMtO-12" style="edgeStyle=orthogonalEdgeStyle;rounded=0;orthogonalLoop=1;jettySize=auto;html=1;exitX=0.5;exitY=0;exitDx=0;exitDy=0;entryX=0.5;entryY=1;entryDx=0;entryDy=0;fontFamily=Helvetica;fontSize=12;fontColor=default;endArrow=blockThin;endFill=0;dashed=1;" parent="1" source="BnRPWy6Q7r4k3ze5cMtO-11" target="BnRPWy6Q7r4k3ze5cMtO-10" edge="1">
          <mxGeometry relative="1" as="geometry" />
        </mxCell>
        <mxCell id="BnRPWy6Q7r4k3ze5cMtO-11" value="&lt;p style=&quot;margin:0px;margin-top:4px;text-align:center;&quot;&gt;&lt;b&gt;&lt;i&gt;CalciteObject&lt;/i&gt;&lt;/b&gt;&lt;b style=&quot;background-color: initial;&quot;&gt;&lt;i&gt;Manager&lt;/i&gt;&lt;/b&gt;&lt;/p&gt;&lt;p style=&quot;margin:0px;margin-left:4px;&quot;&gt;&lt;/p&gt;" style="verticalAlign=top;align=left;overflow=fill;fontSize=12;fontFamily=Helvetica;html=1;" parent="1" vertex="1">
          <mxGeometry x="40" y="970" width="330" height="30" as="geometry" />
        </mxCell>
        <mxCell id="BnRPWy6Q7r4k3ze5cMtO-13" value="&lt;p style=&quot;margin:0px;margin-top:4px;text-align:center;&quot;&gt;&lt;i&gt;&amp;lt;&amp;lt;Interface&amp;gt;&amp;gt;&lt;/i&gt;&lt;br&gt;&lt;b&gt;ObjectMutator&lt;/b&gt;&lt;br&gt;&lt;/p&gt;&lt;hr size=&quot;1&quot;&gt;&lt;p style=&quot;margin:0px;margin-left:4px;&quot;&gt;&lt;/p&gt;&amp;nbsp; + void execute(T t, AppContext context);" style="verticalAlign=top;align=left;overflow=fill;fontSize=12;fontFamily=Helvetica;html=1;" parent="1" vertex="1">
          <mxGeometry x="916" y="630" width="330" height="70" as="geometry" />
        </mxCell>
        <mxCell id="BnRPWy6Q7r4k3ze5cMtO-19" style="edgeStyle=orthogonalEdgeStyle;rounded=0;orthogonalLoop=1;jettySize=auto;html=1;exitX=0.5;exitY=0;exitDx=0;exitDy=0;entryX=0.5;entryY=1;entryDx=0;entryDy=0;dashed=1;fontFamily=Helvetica;fontSize=12;fontColor=default;endArrow=blockThin;endFill=0;" parent="1" source="BnRPWy6Q7r4k3ze5cMtO-14" target="BnRPWy6Q7r4k3ze5cMtO-13" edge="1">
          <mxGeometry relative="1" as="geometry" />
        </mxCell>
        <mxCell id="BnRPWy6Q7r4k3ze5cMtO-14" value="&lt;p style=&quot;margin:0px;margin-top:4px;text-align:center;&quot;&gt;&lt;b style=&quot;background-color: initial;&quot;&gt;InsertMutator&lt;/b&gt;&lt;/p&gt;&lt;hr size=&quot;1&quot;&gt;&lt;p style=&quot;margin:0px;margin-left:4px;&quot;&gt;&lt;/p&gt;&amp;nbsp; + void execute(T t, AppContext context);" style="verticalAlign=top;align=left;overflow=fill;fontSize=12;fontFamily=Helvetica;html=1;" parent="1" vertex="1">
          <mxGeometry x="846" y="750" width="150" height="50" as="geometry" />
        </mxCell>
        <mxCell id="BnRPWy6Q7r4k3ze5cMtO-20" style="edgeStyle=orthogonalEdgeStyle;rounded=0;orthogonalLoop=1;jettySize=auto;html=1;exitX=0.5;exitY=0;exitDx=0;exitDy=0;dashed=1;fontFamily=Helvetica;fontSize=12;fontColor=default;endArrow=blockThin;endFill=0;" parent="1" source="BnRPWy6Q7r4k3ze5cMtO-15" target="BnRPWy6Q7r4k3ze5cMtO-13" edge="1">
          <mxGeometry relative="1" as="geometry" />
        </mxCell>
        <mxCell id="BnRPWy6Q7r4k3ze5cMtO-15" value="&lt;p style=&quot;margin:0px;margin-top:4px;text-align:center;&quot;&gt;&lt;b style=&quot;background-color: initial;&quot;&gt;UpdateMutator&lt;/b&gt;&lt;/p&gt;&lt;hr size=&quot;1&quot;&gt;&lt;p style=&quot;margin:0px;margin-left:4px;&quot;&gt;&lt;/p&gt;&amp;nbsp; + void execute(T t, AppContext context);" style="verticalAlign=top;align=left;overflow=fill;fontSize=12;fontFamily=Helvetica;html=1;" parent="1" vertex="1">
          <mxGeometry x="1006" y="750" width="150" height="50" as="geometry" />
        </mxCell>
        <mxCell id="BnRPWy6Q7r4k3ze5cMtO-21" style="edgeStyle=orthogonalEdgeStyle;rounded=0;orthogonalLoop=1;jettySize=auto;html=1;exitX=0.5;exitY=0;exitDx=0;exitDy=0;dashed=1;fontFamily=Helvetica;fontSize=12;fontColor=default;endArrow=blockThin;endFill=0;" parent="1" source="BnRPWy6Q7r4k3ze5cMtO-16" target="BnRPWy6Q7r4k3ze5cMtO-13" edge="1">
          <mxGeometry relative="1" as="geometry" />
        </mxCell>
        <mxCell id="BnRPWy6Q7r4k3ze5cMtO-16" value="&lt;p style=&quot;margin:0px;margin-top:4px;text-align:center;&quot;&gt;&lt;b style=&quot;background-color: initial;&quot;&gt;DeleteMutator&lt;/b&gt;&lt;/p&gt;&lt;hr size=&quot;1&quot;&gt;&lt;p style=&quot;margin:0px;margin-left:4px;&quot;&gt;&lt;/p&gt;&amp;nbsp; + void execute(T t, AppContext context);" style="verticalAlign=top;align=left;overflow=fill;fontSize=12;fontFamily=Helvetica;html=1;" parent="1" vertex="1">
          <mxGeometry x="1166" y="750" width="150" height="50" as="geometry" />
        </mxCell>
        <mxCell id="BnRPWy6Q7r4k3ze5cMtO-17" value="&lt;p style=&quot;margin:0px;margin-top:4px;text-align:center;&quot;&gt;&lt;b style=&quot;background-color: initial;&quot;&gt;SoftDeleteMutator&lt;/b&gt;&lt;/p&gt;&lt;hr size=&quot;1&quot;&gt;&lt;p style=&quot;margin:0px;margin-left:4px;&quot;&gt;&lt;/p&gt;&amp;nbsp; + void mutate(T t, AppContext context);" style="verticalAlign=top;align=left;overflow=fill;fontSize=12;fontFamily=Helvetica;html=1;" parent="1" vertex="1">
          <mxGeometry x="1328" y="750" width="150" height="50" as="geometry" />
        </mxCell>
        <mxCell id="BnRPWy6Q7r4k3ze5cMtO-18" value="&lt;p style=&quot;margin:0px;margin-top:4px;text-align:center;&quot;&gt;&lt;b style=&quot;background-color: initial;&quot;&gt;RevokeMutator&lt;/b&gt;&lt;/p&gt;&lt;hr size=&quot;1&quot;&gt;&lt;p style=&quot;margin:0px;margin-left:4px;&quot;&gt;&lt;/p&gt;&amp;nbsp; + void mutate(T t, AppContext context);" style="verticalAlign=top;align=left;overflow=fill;fontSize=12;fontFamily=Helvetica;html=1;" parent="1" vertex="1">
          <mxGeometry x="1488" y="750" width="150" height="50" as="geometry" />
        </mxCell>
        <mxCell id="BnRPWy6Q7r4k3ze5cMtO-32" style="edgeStyle=orthogonalEdgeStyle;rounded=0;orthogonalLoop=1;jettySize=auto;html=1;exitX=0.5;exitY=0;exitDx=0;exitDy=0;dashed=1;fontFamily=Helvetica;fontSize=12;fontColor=default;endArrow=blockThin;endFill=0;entryX=0.5;entryY=1;entryDx=0;entryDy=0;" parent="1" source="BnRPWy6Q7r4k3ze5cMtO-31" target="LNh73hC8KATJokVMZUqX-36" edge="1">
          <mxGeometry relative="1" as="geometry">
            <mxPoint x="1001.75" y="501.25" as="targetPoint" />
          </mxGeometry>
        </mxCell>
        <mxCell id="BnRPWy6Q7r4k3ze5cMtO-31" value="&lt;p style=&quot;margin:0px;margin-top:4px;text-align:center;&quot;&gt;&lt;span style=&quot;background-color: initial;&quot;&gt;&lt;b&gt;KvMetadataStorage&lt;/b&gt;&lt;/span&gt;&lt;/p&gt;&lt;hr size=&quot;1&quot;&gt;&amp;nbsp;+ ...&lt;p style=&quot;margin:0px;margin-left:4px;&quot;&gt;&lt;/p&gt;" style="verticalAlign=top;align=left;overflow=fill;fontSize=12;fontFamily=Helvetica;html=1;" parent="1" vertex="1">
          <mxGeometry x="967.75" y="521.25" width="164" height="50" as="geometry" />
        </mxCell>
        <mxCell id="BnRPWy6Q7r4k3ze5cMtO-34" style="edgeStyle=orthogonalEdgeStyle;rounded=0;orthogonalLoop=1;jettySize=auto;html=1;exitX=0.5;exitY=0;exitDx=0;exitDy=0;dashed=1;fontFamily=Helvetica;fontSize=12;fontColor=default;endArrow=blockThin;endFill=0;entryX=0.5;entryY=1;entryDx=0;entryDy=0;" parent="1" source="BnRPWy6Q7r4k3ze5cMtO-33" target="LNh73hC8KATJokVMZUqX-37" edge="1">
          <mxGeometry relative="1" as="geometry">
            <mxPoint x="1145.5" y="481.25" as="targetPoint" />
          </mxGeometry>
        </mxCell>
        <mxCell id="BnRPWy6Q7r4k3ze5cMtO-33" value="&lt;p style=&quot;margin:0px;margin-top:4px;text-align:center;&quot;&gt;&lt;span style=&quot;background-color: initial;&quot;&gt;&lt;b&gt;KvObjectStorage&lt;/b&gt;&lt;/span&gt;&lt;/p&gt;&lt;hr size=&quot;1&quot;&gt;&lt;p style=&quot;margin:0px;margin-left:4px;&quot;&gt;&lt;/p&gt;&amp;nbsp; + ..." style="verticalAlign=top;align=left;overflow=fill;fontSize=12;fontFamily=Helvetica;html=1;" parent="1" vertex="1">
          <mxGeometry x="1166" y="521.25" width="179" height="50" as="geometry" />
        </mxCell>
        <mxCell id="BnRPWy6Q7r4k3ze5cMtO-41" style="edgeStyle=orthogonalEdgeStyle;rounded=0;orthogonalLoop=1;jettySize=auto;html=1;exitX=1;exitY=0.5;exitDx=0;exitDy=0;entryX=0;entryY=0.5;entryDx=0;entryDy=0;fontFamily=Helvetica;fontSize=12;fontColor=default;endArrow=open;endFill=0;" parent="1" source="BnRPWy6Q7r4k3ze5cMtO-39" target="BnRPWy6Q7r4k3ze5cMtO-40" edge="1">
          <mxGeometry relative="1" as="geometry" />
        </mxCell>
        <mxCell id="BnRPWy6Q7r4k3ze5cMtO-39" value="«interface»&lt;br&gt;&lt;b&gt;EventPublisher&lt;/b&gt;" style="html=1;fontFamily=Helvetica;fontSize=12;fontColor=default;strokeColor=default;fillColor=default;" parent="1" vertex="1">
          <mxGeometry x="1218" y="130" width="110" height="50" as="geometry" />
        </mxCell>
        <mxCell id="BnRPWy6Q7r4k3ze5cMtO-40" value="«interface»&lt;br&gt;&lt;b&gt;EventListener&lt;/b&gt;" style="html=1;fontFamily=Helvetica;fontSize=12;fontColor=default;strokeColor=default;fillColor=default;" parent="1" vertex="1">
          <mxGeometry x="1400" y="130" width="110" height="50" as="geometry" />
        </mxCell>
        <mxCell id="BnRPWy6Q7r4k3ze5cMtO-42" value="«interface»&lt;br&gt;&lt;b&gt;Engine&lt;/b&gt;" style="html=1;fontFamily=Helvetica;fontSize=12;fontColor=default;strokeColor=default;fillColor=default;" parent="1" vertex="1">
          <mxGeometry x="2016" y="120" width="110" height="50" as="geometry" />
        </mxCell>
        <mxCell id="BnRPWy6Q7r4k3ze5cMtO-43" value="&lt;p style=&quot;margin:0px;margin-top:4px;text-align:center;&quot;&gt;&lt;i&gt;&amp;lt;&amp;lt;Interface&amp;gt;&amp;gt;&lt;/i&gt;&lt;br&gt;&lt;b&gt;Engine&lt;/b&gt;&lt;br&gt;&lt;/p&gt;&lt;hr size=&quot;1&quot;&gt;&lt;p style=&quot;margin:0px;margin-left:4px;&quot;&gt;&lt;/p&gt;&amp;nbsp; + long inc(Key key, int delta);&lt;br&gt;&amp;nbsp; + void put(Key key, byte[] value);&lt;br&gt;&amp;nbsp; +&amp;nbsp;byte[] get(Key key);&lt;br&gt;&amp;nbsp; +&amp;nbsp;List&amp;lt;byte[]&amp;gt; multiGet(List&amp;lt;Key&amp;gt; keys);&lt;br&gt;&amp;nbsp; +&amp;nbsp;Iterator scan(Key startKey, @Nullable Key endKey);&lt;br&gt;&amp;nbsp; +&amp;nbsp;void delete(Key key);&lt;br&gt;&amp;nbsp; +&amp;nbsp;void deleteRange(Key start, Key endKey);&lt;br&gt;&amp;nbsp; + BatchOperator batchOperator();" style="verticalAlign=top;align=left;overflow=fill;fontSize=12;fontFamily=Helvetica;html=1;" parent="1" vertex="1">
          <mxGeometry x="1700" y="440" width="300" height="170" as="geometry" />
        </mxCell>
        <mxCell id="BnRPWy6Q7r4k3ze5cMtO-45" value="&lt;p style=&quot;margin:0px;margin-top:4px;text-align:center;&quot;&gt;&lt;b&gt;RocksDbEngine&lt;/b&gt;&lt;br&gt;&lt;/p&gt;&lt;hr size=&quot;1&quot;&gt;&lt;p style=&quot;margin:0px;margin-left:4px;&quot;&gt;&lt;/p&gt;&amp;nbsp; + ..." style="verticalAlign=top;align=left;overflow=fill;fontSize=12;fontFamily=Helvetica;html=1;" parent="1" vertex="1">
          <mxGeometry x="1986" y="200" width="164" height="50" as="geometry" />
        </mxCell>
        <mxCell id="BnRPWy6Q7r4k3ze5cMtO-46" style="edgeStyle=orthogonalEdgeStyle;rounded=0;orthogonalLoop=1;jettySize=auto;html=1;exitX=0.5;exitY=0;exitDx=0;exitDy=0;entryX=0.5;entryY=1;entryDx=0;entryDy=0;dashed=1;fontFamily=Helvetica;fontSize=12;fontColor=default;endArrow=blockThin;endFill=0;" parent="1" source="BnRPWy6Q7r4k3ze5cMtO-45" target="BnRPWy6Q7r4k3ze5cMtO-42" edge="1">
          <mxGeometry relative="1" as="geometry">
            <mxPoint x="1803" y="330" as="sourcePoint" />
            <mxPoint x="1803" y="290" as="targetPoint" />
          </mxGeometry>
        </mxCell>
        <mxCell id="LNh73hC8KATJokVMZUqX-5" value="Metadata" style="swimlane;fontStyle=1;align=center;verticalAlign=top;childLayout=stackLayout;horizontal=1;startSize=26;horizontalStack=0;resizeParent=1;resizeParentMax=0;resizeLast=0;collapsible=1;marginBottom=0;" parent="1" vertex="1">
          <mxGeometry x="1163" y="870" width="160" height="70" as="geometry" />
        </mxCell>
        <mxCell id="LNh73hC8KATJokVMZUqX-6" value="- fullname: String&#xa;- label: String" style="text;strokeColor=none;fillColor=none;align=left;verticalAlign=top;spacingLeft=4;spacingRight=4;overflow=hidden;rotatable=0;points=[[0,0.5],[1,0.5]];portConstraint=eastwest;" parent="LNh73hC8KATJokVMZUqX-5" vertex="1">
          <mxGeometry y="26" width="160" height="44" as="geometry" />
        </mxCell>
        <mxCell id="LNh73hC8KATJokVMZUqX-12" style="edgeStyle=orthogonalEdgeStyle;rounded=0;orthogonalLoop=1;jettySize=auto;html=1;exitX=0.5;exitY=0;exitDx=0;exitDy=0;endArrow=block;endFill=0;" parent="1" source="LNh73hC8KATJokVMZUqX-19" target="LNh73hC8KATJokVMZUqX-5" edge="1">
          <mxGeometry relative="1" as="geometry" />
        </mxCell>
        <mxCell id="LNh73hC8KATJokVMZUqX-21" style="edgeStyle=orthogonalEdgeStyle;rounded=0;orthogonalLoop=1;jettySize=auto;html=1;exitX=0.5;exitY=0;exitDx=0;exitDy=0;endArrow=block;endFill=0;" parent="1" source="LNh73hC8KATJokVMZUqX-10" target="LNh73hC8KATJokVMZUqX-5" edge="1">
          <mxGeometry relative="1" as="geometry" />
        </mxCell>
        <mxCell id="LNh73hC8KATJokVMZUqX-10" value="..." style="swimlane;fontStyle=1;align=center;verticalAlign=top;childLayout=stackLayout;horizontal=1;startSize=26;horizontalStack=0;resizeParent=1;resizeParentMax=0;resizeLast=0;collapsible=1;marginBottom=0;" parent="1" vertex="1">
          <mxGeometry x="1260" y="1020" width="160" height="50" as="geometry" />
        </mxCell>
        <mxCell id="LNh73hC8KATJokVMZUqX-18" style="edgeStyle=orthogonalEdgeStyle;rounded=0;orthogonalLoop=1;jettySize=auto;html=1;exitX=0.5;exitY=0;exitDx=0;exitDy=0;endArrow=block;endFill=0;" parent="1" source="LNh73hC8KATJokVMZUqX-13" target="LNh73hC8KATJokVMZUqX-5" edge="1">
          <mxGeometry relative="1" as="geometry" />
        </mxCell>
        <mxCell id="LNh73hC8KATJokVMZUqX-13" value="SystemMetadata" style="swimlane;fontStyle=1;align=center;verticalAlign=top;childLayout=stackLayout;horizontal=1;startSize=26;horizontalStack=0;resizeParent=1;resizeParentMax=0;resizeLast=0;collapsible=1;marginBottom=0;" parent="1" vertex="1">
          <mxGeometry x="900" y="1020" width="160" height="70" as="geometry" />
        </mxCell>
        <mxCell id="LNh73hC8KATJokVMZUqX-14" value="- company: String&#xa;- logo: String" style="text;strokeColor=none;fillColor=none;align=left;verticalAlign=top;spacingLeft=4;spacingRight=4;overflow=hidden;rotatable=0;points=[[0,0.5],[1,0.5]];portConstraint=eastwest;" parent="LNh73hC8KATJokVMZUqX-13" vertex="1">
          <mxGeometry y="26" width="160" height="44" as="geometry" />
        </mxCell>
        <mxCell id="LNh73hC8KATJokVMZUqX-17" style="edgeStyle=orthogonalEdgeStyle;rounded=0;orthogonalLoop=1;jettySize=auto;html=1;exitX=0.5;exitY=0;exitDx=0;exitDy=0;endArrow=block;endFill=0;" parent="1" source="LNh73hC8KATJokVMZUqX-15" target="LNh73hC8KATJokVMZUqX-5" edge="1">
          <mxGeometry relative="1" as="geometry" />
        </mxCell>
        <mxCell id="LNh73hC8KATJokVMZUqX-15" value="MenuMetadata" style="swimlane;fontStyle=1;align=center;verticalAlign=top;childLayout=stackLayout;horizontal=1;startSize=26;horizontalStack=0;resizeParent=1;resizeParentMax=0;resizeLast=0;collapsible=1;marginBottom=0;" parent="1" vertex="1">
          <mxGeometry x="1081" y="1020" width="160" height="50" as="geometry" />
        </mxCell>
        <mxCell id="LNh73hC8KATJokVMZUqX-16" value="- menus: MenuItem[]" style="text;strokeColor=none;fillColor=none;align=left;verticalAlign=top;spacingLeft=4;spacingRight=4;overflow=hidden;rotatable=0;points=[[0,0.5],[1,0.5]];portConstraint=eastwest;" parent="LNh73hC8KATJokVMZUqX-15" vertex="1">
          <mxGeometry y="26" width="160" height="24" as="geometry" />
        </mxCell>
        <mxCell id="LNh73hC8KATJokVMZUqX-19" value="ObjectMetadata" style="swimlane;fontStyle=1;align=center;verticalAlign=top;childLayout=stackLayout;horizontal=1;startSize=26;horizontalStack=0;resizeParent=1;resizeParentMax=0;resizeLast=0;collapsible=1;marginBottom=0;" parent="1" vertex="1">
          <mxGeometry x="1440" y="1020" width="160" height="90" as="geometry" />
        </mxCell>
        <mxCell id="LNh73hC8KATJokVMZUqX-20" value="- id: ObjectId&#xa;- fields: ObjectField[]&#xa;- indexes: ObjectIndex[]" style="text;strokeColor=none;fillColor=none;align=left;verticalAlign=top;spacingLeft=4;spacingRight=4;overflow=hidden;rotatable=0;points=[[0,0.5],[1,0.5]];portConstraint=eastwest;" parent="LNh73hC8KATJokVMZUqX-19" vertex="1">
          <mxGeometry y="26" width="160" height="64" as="geometry" />
        </mxCell>
        <mxCell id="LNh73hC8KATJokVMZUqX-22" value="DynamicObject" style="swimlane;fontStyle=1;align=center;verticalAlign=top;childLayout=stackLayout;horizontal=1;startSize=26;horizontalStack=0;resizeParent=1;resizeParentMax=0;resizeLast=0;collapsible=1;marginBottom=0;" parent="1" vertex="1">
          <mxGeometry x="1917" y="1002.5" width="160" height="70" as="geometry" />
        </mxCell>
        <mxCell id="LNh73hC8KATJokVMZUqX-23" value="- id: long&#xa;- creataAt: Date" style="text;strokeColor=none;fillColor=none;align=left;verticalAlign=top;spacingLeft=4;spacingRight=4;overflow=hidden;rotatable=0;points=[[0,0.5],[1,0.5]];portConstraint=eastwest;" parent="LNh73hC8KATJokVMZUqX-22" vertex="1">
          <mxGeometry y="26" width="160" height="44" as="geometry" />
        </mxCell>
        <mxCell id="LNh73hC8KATJokVMZUqX-24" style="edgeStyle=orthogonalEdgeStyle;rounded=0;orthogonalLoop=1;jettySize=auto;html=1;exitX=0.5;exitY=0;exitDx=0;exitDy=0;endArrow=block;endFill=0;" parent="1" source="LNh73hC8KATJokVMZUqX-25" target="LNh73hC8KATJokVMZUqX-22" edge="1">
          <mxGeometry relative="1" as="geometry" />
        </mxCell>
        <mxCell id="LNh73hC8KATJokVMZUqX-25" value="..." style="swimlane;fontStyle=1;align=center;verticalAlign=top;childLayout=stackLayout;horizontal=1;startSize=26;horizontalStack=0;resizeParent=1;resizeParentMax=0;resizeLast=0;collapsible=1;marginBottom=0;" parent="1" vertex="1">
          <mxGeometry x="2096" y="1147.5" width="160" height="50" as="geometry" />
        </mxCell>
        <mxCell id="LNh73hC8KATJokVMZUqX-26" style="edgeStyle=orthogonalEdgeStyle;rounded=0;orthogonalLoop=1;jettySize=auto;html=1;exitX=0.5;exitY=0;exitDx=0;exitDy=0;endArrow=block;endFill=0;" parent="1" source="LNh73hC8KATJokVMZUqX-27" target="LNh73hC8KATJokVMZUqX-22" edge="1">
          <mxGeometry relative="1" as="geometry" />
        </mxCell>
        <mxCell id="LNh73hC8KATJokVMZUqX-27" value="Department" style="swimlane;fontStyle=1;align=center;verticalAlign=top;childLayout=stackLayout;horizontal=1;startSize=26;horizontalStack=0;resizeParent=1;resizeParentMax=0;resizeLast=0;collapsible=1;marginBottom=0;" parent="1" vertex="1">
          <mxGeometry x="1736" y="1147.5" width="160" height="70" as="geometry" />
        </mxCell>
        <mxCell id="LNh73hC8KATJokVMZUqX-28" value="- name: String&#xa;- child: long" style="text;strokeColor=none;fillColor=none;align=left;verticalAlign=top;spacingLeft=4;spacingRight=4;overflow=hidden;rotatable=0;points=[[0,0.5],[1,0.5]];portConstraint=eastwest;" parent="LNh73hC8KATJokVMZUqX-27" vertex="1">
          <mxGeometry y="26" width="160" height="44" as="geometry" />
        </mxCell>
        <mxCell id="LNh73hC8KATJokVMZUqX-29" style="edgeStyle=orthogonalEdgeStyle;rounded=0;orthogonalLoop=1;jettySize=auto;html=1;exitX=0.5;exitY=0;exitDx=0;exitDy=0;endArrow=block;endFill=0;" parent="1" source="LNh73hC8KATJokVMZUqX-30" target="LNh73hC8KATJokVMZUqX-22" edge="1">
          <mxGeometry relative="1" as="geometry" />
        </mxCell>
        <mxCell id="LNh73hC8KATJokVMZUqX-30" value="Staff" style="swimlane;fontStyle=1;align=center;verticalAlign=top;childLayout=stackLayout;horizontal=1;startSize=26;horizontalStack=0;resizeParent=1;resizeParentMax=0;resizeLast=0;collapsible=1;marginBottom=0;" parent="1" vertex="1">
          <mxGeometry x="1917" y="1147.5" width="160" height="50" as="geometry" />
        </mxCell>
        <mxCell id="LNh73hC8KATJokVMZUqX-31" value="- name: String" style="text;strokeColor=none;fillColor=none;align=left;verticalAlign=top;spacingLeft=4;spacingRight=4;overflow=hidden;rotatable=0;points=[[0,0.5],[1,0.5]];portConstraint=eastwest;" parent="LNh73hC8KATJokVMZUqX-30" vertex="1">
          <mxGeometry y="26" width="160" height="24" as="geometry" />
        </mxCell>
        <mxCell id="LNh73hC8KATJokVMZUqX-33" value="&lt;p style=&quot;margin:0px;margin-top:4px;text-align:center;&quot;&gt;&lt;i&gt;&amp;lt;&amp;lt;Interface&amp;gt;&amp;gt;&lt;/i&gt;&lt;br&gt;&lt;b&gt;DataStorage&lt;/b&gt;&lt;br&gt;&lt;/p&gt;&lt;hr size=&quot;1&quot;&gt;&lt;p style=&quot;margin:0px;margin-left:4px;&quot;&gt;&lt;/p&gt;&amp;nbsp; + begin:&amp;nbsp;Transaction" style="verticalAlign=top;align=left;overflow=fill;fontSize=12;fontFamily=Helvetica;html=1;" parent="1" vertex="1">
          <mxGeometry x="1932" y="912.5" width="180" height="80" as="geometry" />
        </mxCell>
        <mxCell id="LNh73hC8KATJokVMZUqX-34" value="«interface»&lt;br&gt;&lt;b&gt;MetadataStorage&lt;/b&gt;" style="html=1;fontFamily=Helvetica;fontSize=12;fontColor=default;strokeColor=default;fillColor=default;" parent="1" vertex="1">
          <mxGeometry x="1762" y="927.5" width="130" height="50" as="geometry" />
        </mxCell>
        <mxCell id="LNh73hC8KATJokVMZUqX-35" value="&lt;p style=&quot;margin:0px;margin-top:4px;text-align:center;&quot;&gt;&lt;i&gt;&amp;lt;&amp;lt;Interface&amp;gt;&amp;gt;&lt;/i&gt;&lt;br&gt;&lt;b&gt;ObjectStorage&lt;/b&gt;&lt;br&gt;&lt;/p&gt;&lt;hr size=&quot;1&quot;&gt;&lt;p style=&quot;margin:0px;margin-left:4px;&quot;&gt;&lt;/p&gt;&amp;nbsp; + begin:&amp;nbsp;Transaction" style="verticalAlign=top;align=left;overflow=fill;fontSize=12;fontFamily=Helvetica;html=1;" parent="1" vertex="1">
          <mxGeometry x="366" y="107.5" width="182" height="65" as="geometry" />
        </mxCell>
        <mxCell id="LNh73hC8KATJokVMZUqX-36" value="«interface»&lt;br&gt;&lt;b&gt;MetadataStorage&lt;/b&gt;" style="html=1;fontFamily=Helvetica;fontSize=12;fontColor=default;strokeColor=default;fillColor=default;" parent="1" vertex="1">
          <mxGeometry x="981.5600000000001" y="450" width="136.38" height="41.25" as="geometry" />
        </mxCell>
        <mxCell id="LNh73hC8KATJokVMZUqX-37" value="&lt;p style=&quot;margin:0px;margin-top:4px;text-align:center;&quot;&gt;&lt;i&gt;&amp;lt;&amp;lt;Interface&amp;gt;&amp;gt;&lt;/i&gt;&lt;br&gt;&lt;b&gt;ObjectStorage&lt;/b&gt;&lt;br&gt;&lt;/p&gt;&lt;br&gt;&lt;p style=&quot;margin:0px;margin-left:4px;&quot;&gt;&lt;/p&gt;" style="verticalAlign=top;align=left;overflow=fill;fontSize=12;fontFamily=Helvetica;html=1;" parent="1" vertex="1">
          <mxGeometry x="1175.5" y="450" width="160" height="41.25" as="geometry" />
        </mxCell>
        <mxCell id="LNh73hC8KATJokVMZUqX-53" style="edgeStyle=orthogonalEdgeStyle;rounded=0;orthogonalLoop=1;jettySize=auto;html=1;exitX=1;exitY=0.25;exitDx=0;exitDy=0;entryX=0;entryY=0.5;entryDx=0;entryDy=0;endArrow=classic;endFill=1;" parent="1" source="LNh73hC8KATJokVMZUqX-38" target="LNh73hC8KATJokVMZUqX-39" edge="1">
          <mxGeometry relative="1" as="geometry" />
        </mxCell>
        <mxCell id="LNh73hC8KATJokVMZUqX-38" value="&lt;p style=&quot;margin:0px;margin-top:4px;text-align:center;&quot;&gt;&lt;i&gt;&amp;lt;&amp;lt;Interface&amp;gt;&amp;gt;&lt;/i&gt;&lt;br&gt;&lt;b&gt;Transaction&lt;/b&gt;&lt;br&gt;&lt;/p&gt;&lt;hr size=&quot;1&quot;&gt;&lt;p style=&quot;margin:0px;margin-left:4px;&quot;&gt;&lt;/p&gt;&amp;nbsp; + void rollback();&lt;br&gt;&amp;nbsp; + void commit();&lt;br&gt;&amp;nbsp; +&amp;nbsp;long startTs();&lt;br&gt;&amp;nbsp; + RowRetriever rowRetriever();&lt;br&gt;&amp;nbsp; + RowMutator rowMutator();" style="verticalAlign=top;align=left;overflow=fill;fontSize=12;fontFamily=Helvetica;html=1;fillColor=default;" parent="1" vertex="1">
          <mxGeometry x="2610" y="315" width="330" height="135" as="geometry" />
        </mxCell>
        <mxCell id="LNh73hC8KATJokVMZUqX-39" value="&lt;p style=&quot;margin:0px;margin-top:4px;text-align:center;&quot;&gt;&lt;i&gt;&amp;lt;&amp;lt;Interface&amp;gt;&amp;gt;&lt;/i&gt;&lt;br&gt;&lt;b&gt;RowRetriever&lt;/b&gt;&lt;br&gt;&lt;/p&gt;&lt;hr size=&quot;1&quot;&gt;&lt;p style=&quot;margin:0px;margin-left:4px;&quot;&gt;&lt;/p&gt;&amp;nbsp; + Enumerable&amp;lt;Row&amp;gt; find(FindDo findDo);" style="verticalAlign=top;align=left;overflow=fill;fontSize=12;fontFamily=Helvetica;html=1;" parent="1" vertex="1">
          <mxGeometry x="2990" y="285" width="330" height="65" as="geometry" />
        </mxCell>
        <mxCell id="LNh73hC8KATJokVMZUqX-41" value="«interface»&lt;br&gt;&lt;b&gt;Engine&lt;/b&gt;" style="html=1;fontFamily=Helvetica;fontSize=12;fontColor=default;strokeColor=default;fillColor=default;" parent="1" vertex="1">
          <mxGeometry x="1766" y="130" width="110" height="50" as="geometry" />
        </mxCell>
        <mxCell id="LNh73hC8KATJokVMZUqX-42" value="&lt;p style=&quot;margin:0px;margin-top:4px;text-align:center;&quot;&gt;&lt;b&gt;MemDbEngine&lt;/b&gt;&lt;br&gt;&lt;/p&gt;&lt;hr size=&quot;1&quot;&gt;&lt;p style=&quot;margin:0px;margin-left:4px;&quot;&gt;&lt;/p&gt;&amp;nbsp; + ..." style="verticalAlign=top;align=left;overflow=fill;fontSize=12;fontFamily=Helvetica;html=1;" parent="1" vertex="1">
          <mxGeometry x="1736" y="210" width="164" height="50" as="geometry" />
        </mxCell>
        <mxCell id="LNh73hC8KATJokVMZUqX-43" style="edgeStyle=orthogonalEdgeStyle;rounded=0;orthogonalLoop=1;jettySize=auto;html=1;exitX=0.5;exitY=0;exitDx=0;exitDy=0;entryX=0.5;entryY=1;entryDx=0;entryDy=0;dashed=1;fontFamily=Helvetica;fontSize=12;fontColor=default;endArrow=blockThin;endFill=0;" parent="1" source="LNh73hC8KATJokVMZUqX-42" target="LNh73hC8KATJokVMZUqX-41" edge="1">
          <mxGeometry relative="1" as="geometry">
            <mxPoint x="1553" y="340" as="sourcePoint" />
            <mxPoint x="1553" y="300" as="targetPoint" />
          </mxGeometry>
        </mxCell>
        <mxCell id="LNh73hC8KATJokVMZUqX-46" value="&lt;p style=&quot;margin:0px;margin-top:4px;text-align:center;&quot;&gt;&lt;i&gt;&amp;lt;&amp;lt;Interface&amp;gt;&amp;gt;&lt;/i&gt;&lt;br&gt;&lt;b&gt;IdGenerator&lt;/b&gt;&lt;br&gt;&lt;/p&gt;&lt;hr size=&quot;1&quot;&gt;&lt;p style=&quot;margin:0px;margin-left:4px;&quot;&gt;&lt;/p&gt;&amp;nbsp; + long rowId(ObjectId objectId);" style="verticalAlign=top;align=left;overflow=fill;fontSize=12;fontFamily=Helvetica;html=1;" parent="1" vertex="1">
          <mxGeometry x="1472" y="315" width="182" height="65" as="geometry" />
        </mxCell>
        <mxCell id="LNh73hC8KATJokVMZUqX-66" style="edgeStyle=orthogonalEdgeStyle;rounded=0;orthogonalLoop=1;jettySize=auto;html=1;exitX=1;exitY=0.5;exitDx=0;exitDy=0;entryX=0;entryY=0.25;entryDx=0;entryDy=0;endArrow=classic;endFill=1;" parent="1" source="BnRPWy6Q7r4k3ze5cMtO-43" target="LNh73hC8KATJokVMZUqX-63" edge="1">
          <mxGeometry relative="1" as="geometry">
            <mxPoint x="2321" y="518.125" as="sourcePoint" />
          </mxGeometry>
        </mxCell>
        <mxCell id="LNh73hC8KATJokVMZUqX-54" value="&lt;p style=&quot;margin:0px;margin-top:4px;text-align:center;&quot;&gt;&lt;i&gt;&amp;lt;&amp;lt;Interface&amp;gt;&amp;gt;&lt;/i&gt;&lt;br&gt;&lt;b&gt;Object&lt;/b&gt;&lt;b style=&quot;background-color: initial;&quot;&gt;Manager&lt;/b&gt;&lt;/p&gt;&lt;hr size=&quot;1&quot;&gt;&lt;p style=&quot;margin:0px;margin-left:4px;&quot;&gt;&lt;/p&gt;&amp;nbsp; + ResultSet&amp;lt;List&amp;lt;? extends Datum&amp;gt;&amp;gt; executeQuery(String sql, AppContext appContext);&lt;br&gt;&amp;nbsp; +&amp;nbsp;ResultSet&amp;lt;Integer&amp;gt; executeUpdate(String sql, AppContext appContext);" style="verticalAlign=top;align=left;overflow=fill;fontSize=12;fontFamily=Helvetica;html=1;" parent="1" vertex="1">
          <mxGeometry x="400" y="865" width="500" height="80" as="geometry" />
        </mxCell>
        <mxCell id="LNh73hC8KATJokVMZUqX-55" value="&lt;p style=&quot;margin:0px;margin-top:4px;text-align:center;&quot;&gt;&lt;b&gt;&lt;i&gt;CalciteDataManager&lt;/i&gt;&lt;br&gt;&lt;/b&gt;&lt;/p&gt;&lt;hr size=&quot;1&quot;&gt;&lt;p style=&quot;margin:0px;margin-left:4px;&quot;&gt;&lt;/p&gt;&amp;nbsp; + ResultSet execute(String moql, AppContext appContext);" style="verticalAlign=top;align=left;overflow=fill;fontSize=12;fontFamily=Helvetica;html=1;" parent="1" vertex="1">
          <mxGeometry x="400" y="965" width="330" height="70" as="geometry" />
        </mxCell>
        <mxCell id="LNh73hC8KATJokVMZUqX-58" style="edgeStyle=orthogonalEdgeStyle;rounded=0;orthogonalLoop=1;jettySize=auto;html=1;exitX=1;exitY=0.5;exitDx=0;exitDy=0;entryX=0;entryY=0.5;entryDx=0;entryDy=0;endArrow=classic;endFill=1;" parent="1" source="LNh73hC8KATJokVMZUqX-56" target="LNh73hC8KATJokVMZUqX-57" edge="1">
          <mxGeometry relative="1" as="geometry" />
        </mxCell>
        <mxCell id="LNh73hC8KATJokVMZUqX-56" value="&lt;div style=&quot;box-sizing:border-box;width:100%;background:#e4e4e4;padding:2px;&quot;&gt;candidate&lt;/div&gt;&lt;table style=&quot;width:100%;font-size:1em;&quot; cellpadding=&quot;2&quot; cellspacing=&quot;0&quot;&gt;&lt;tbody&gt;&lt;tr&gt;&lt;td&gt;PK&lt;/td&gt;&lt;td&gt;id&lt;/td&gt;&lt;/tr&gt;&lt;tr&gt;&lt;td&gt;&lt;br&gt;&lt;/td&gt;&lt;td&gt;name&lt;/td&gt;&lt;/tr&gt;&lt;tr&gt;&lt;td&gt;&lt;/td&gt;&lt;td&gt;resume&lt;br&gt;&lt;/td&gt;&lt;/tr&gt;&lt;/tbody&gt;&lt;/table&gt;" style="verticalAlign=top;align=left;overflow=fill;html=1;" parent="1" vertex="1">
          <mxGeometry x="2610" y="585" width="180" height="90" as="geometry" />
        </mxCell>
        <mxCell id="LNh73hC8KATJokVMZUqX-57" value="&lt;div style=&quot;box-sizing:border-box;width:100%;background:#e4e4e4;padding:2px;&quot;&gt;candidate_auth&lt;/div&gt;&lt;table style=&quot;width:100%;font-size:1em;&quot; cellpadding=&quot;2&quot; cellspacing=&quot;0&quot;&gt;&lt;tbody&gt;&lt;tr&gt;&lt;td&gt;PK&lt;/td&gt;&lt;td&gt;id&lt;/td&gt;&lt;/tr&gt;&lt;tr&gt;&lt;td&gt;&lt;br&gt;&lt;/td&gt;&lt;td&gt;rowId&lt;/td&gt;&lt;/tr&gt;&lt;tr&gt;&lt;td&gt;&lt;/td&gt;&lt;td&gt;crowd&amp;nbsp; &amp;nbsp; &amp;nbsp; &amp;nbsp; &amp;nbsp; &amp;nbsp; &amp;nbsp;&amp;nbsp;&lt;br&gt;&lt;br&gt;&lt;/td&gt;&lt;/tr&gt;&lt;/tbody&gt;&lt;/table&gt;" style="verticalAlign=top;align=left;overflow=fill;html=1;" parent="1" vertex="1">
          <mxGeometry x="2870" y="585" width="180" height="90" as="geometry" />
        </mxCell>
        <mxCell id="LNh73hC8KATJokVMZUqX-59" value="«interface»&lt;br&gt;&lt;b&gt;Closeable&lt;/b&gt;" style="html=1;fontFamily=Helvetica;fontSize=12;fontColor=default;strokeColor=default;fillColor=default;" parent="1" vertex="1">
          <mxGeometry x="1970" y="285" width="130" height="50" as="geometry" />
        </mxCell>
        <mxCell id="LNh73hC8KATJokVMZUqX-60" style="edgeStyle=orthogonalEdgeStyle;rounded=0;orthogonalLoop=1;jettySize=auto;html=1;exitX=0.5;exitY=0;exitDx=0;exitDy=0;endArrow=block;endFill=0;entryX=0.5;entryY=1;entryDx=0;entryDy=0;" parent="1" source="BnRPWy6Q7r4k3ze5cMtO-43" target="LNh73hC8KATJokVMZUqX-59" edge="1">
          <mxGeometry relative="1" as="geometry">
            <mxPoint x="1915" y="600" as="sourcePoint" />
            <mxPoint x="1915.0000000000005" y="562.5" as="targetPoint" />
          </mxGeometry>
        </mxCell>
        <mxCell id="LNh73hC8KATJokVMZUqX-67" style="edgeStyle=orthogonalEdgeStyle;rounded=0;orthogonalLoop=1;jettySize=auto;html=1;exitX=0.5;exitY=0;exitDx=0;exitDy=0;endArrow=block;endFill=0;" parent="1" source="LNh73hC8KATJokVMZUqX-63" target="LNh73hC8KATJokVMZUqX-59" edge="1">
          <mxGeometry relative="1" as="geometry" />
        </mxCell>
        <mxCell id="LNh73hC8KATJokVMZUqX-63" value="&lt;p style=&quot;margin:0px;margin-top:4px;text-align:center;&quot;&gt;&lt;i&gt;&amp;lt;&amp;lt;Interface&amp;gt;&amp;gt;&lt;/i&gt;&lt;br&gt;&lt;b&gt;BatchOperator&lt;/b&gt;&lt;br&gt;&lt;/p&gt;&lt;hr size=&quot;1&quot;&gt;&lt;p style=&quot;margin:0px;margin-left:4px;&quot;&gt;&lt;/p&gt;&amp;nbsp; + void put(Key key, byte[] value);&lt;br&gt;&amp;nbsp; +&amp;nbsp;void delete(Key key);" style="verticalAlign=top;align=left;overflow=fill;fontSize=12;fontFamily=Helvetica;html=1;" parent="1" vertex="1">
          <mxGeometry x="2130" y="440" width="200" height="96.25" as="geometry" />
        </mxCell>
        <mxCell id="LNh73hC8KATJokVMZUqX-68" value="&lt;p style=&quot;margin:0px;margin-top:4px;text-align:center;&quot;&gt;&lt;i&gt;&amp;lt;&amp;lt;Interface&amp;gt;&amp;gt;&lt;/i&gt;&lt;br&gt;&lt;b&gt;MetadataStorage&lt;/b&gt;&lt;br&gt;&lt;/p&gt;&lt;hr size=&quot;1&quot;&gt;&lt;p style=&quot;margin:0px;margin-left:4px;&quot;&gt;&lt;/p&gt;&amp;nbsp; + begin:&amp;nbsp;Transaction" style="verticalAlign=top;align=left;overflow=fill;fontSize=12;fontFamily=Helvetica;html=1;" parent="1" vertex="1">
          <mxGeometry x="1108" y="310" width="182" height="65" as="geometry" />
        </mxCell>
        <mxCell id="LNh73hC8KATJokVMZUqX-70" value="&lt;p style=&quot;margin:0px;margin-top:4px;text-align:center;&quot;&gt;&lt;i&gt;&amp;lt;&amp;lt;Interface&amp;gt;&amp;gt;&lt;/i&gt;&lt;br&gt;&lt;b&gt;MetadataStorage&lt;/b&gt;&lt;/p&gt;&lt;hr size=&quot;1&quot;&gt;&lt;p style=&quot;margin:0px;margin-left:4px;&quot;&gt;&lt;/p&gt;&amp;nbsp; +&amp;nbsp;&lt;span style=&quot;background-color: initial;&quot;&gt;&amp;lt;T extends Metadata&amp;gt; List&amp;lt;T&amp;gt; find(Class&amp;lt;T&amp;gt; metadataClass, String... fullNames);&lt;/span&gt;&lt;div&gt;&amp;nbsp; +&amp;nbsp;&lt;span style=&quot;background-color: initial;&quot;&gt;&amp;lt;T extends Metadata&amp;gt; List&amp;lt;T&amp;gt; list(Class&amp;lt;T&amp;gt; metadataClass);&lt;/span&gt;&lt;/div&gt;&lt;div&gt;&lt;span style=&quot;background-color: initial;&quot;&gt;&amp;nbsp; + void create(Metadata metadata);&lt;/span&gt;&lt;/div&gt;&lt;div&gt;&lt;span style=&quot;background-color: initial;&quot;&gt;&amp;nbsp; + void update(Metadata metadata);&lt;/span&gt;&lt;/div&gt;&lt;div&gt;&lt;span style=&quot;background-color: initial;&quot;&gt;&amp;nbsp; + &amp;lt;T extends Metadata&amp;gt; void delete(Class&amp;lt;T&amp;gt; metadataClass, String... fullNames);&lt;/span&gt;&lt;/div&gt;" style="verticalAlign=top;align=left;overflow=fill;fontSize=12;fontFamily=Helvetica;html=1;" parent="1" vertex="1">
          <mxGeometry x="366" y="-50" width="465" height="130" as="geometry" />
        </mxCell>
        <mxCell id="LNh73hC8KATJokVMZUqX-71" value="&lt;p style=&quot;margin:0px;margin-top:4px;text-align:center;&quot;&gt;&lt;i&gt;&amp;lt;&amp;lt;Interface&amp;gt;&amp;gt;&lt;/i&gt;&lt;br&gt;&lt;b&gt;IdGenerator&lt;/b&gt;&lt;/p&gt;&lt;hr size=&quot;1&quot;&gt;&lt;p style=&quot;margin:0px;margin-left:4px;&quot;&gt;&lt;/p&gt;&amp;nbsp; + long requestId();" style="verticalAlign=top;align=left;overflow=fill;fontSize=12;fontFamily=Helvetica;html=1;" parent="1" vertex="1">
          <mxGeometry x="299" y="1130" width="146" height="67.5" as="geometry" />
        </mxCell>
        <mxCell id="LNh73hC8KATJokVMZUqX-72" value="&lt;p style=&quot;margin:0px;margin-top:4px;text-align:center;&quot;&gt;&lt;i&gt;&amp;lt;&amp;lt;Interface&amp;gt;&amp;gt;&lt;/i&gt;&lt;br&gt;&lt;b&gt;MapStorage&lt;/b&gt;&lt;br&gt;&lt;/p&gt;&lt;hr size=&quot;1&quot;&gt;&lt;p style=&quot;margin:0px;margin-left:4px;&quot;&gt;&lt;/p&gt;&amp;nbsp; + long inc(String key, int delta);&lt;br&gt;&amp;nbsp; + void put(String key, Object value);&lt;br&gt;&amp;nbsp; +&amp;nbsp;Object get(String key);" style="verticalAlign=top;align=left;overflow=fill;fontSize=12;fontFamily=Helvetica;html=1;" parent="1" vertex="1">
          <mxGeometry x="366" y="192.5" width="214" height="97.5" as="geometry" />
        </mxCell>
        <mxCell id="LNh73hC8KATJokVMZUqX-74" value="&lt;p style=&quot;margin:0px;margin-top:4px;text-align:center;&quot;&gt;&lt;i&gt;&amp;lt;&amp;lt;Interface&amp;gt;&amp;gt;&lt;/i&gt;&lt;br&gt;&lt;b&gt;ObjectStorage&lt;/b&gt;&lt;br&gt;&lt;/p&gt;&lt;hr size=&quot;1&quot;&gt;&lt;p style=&quot;margin:0px;margin-left:4px;&quot;&gt;&lt;/p&gt;&amp;nbsp; + begin:&amp;nbsp;Transaction" style="verticalAlign=top;align=left;overflow=fill;fontSize=12;fontFamily=Helvetica;html=1;" parent="1" vertex="1">
          <mxGeometry x="2380" y="316.25" width="182" height="65" as="geometry" />
        </mxCell>
        <mxCell id="LNh73hC8KATJokVMZUqX-75" style="edgeStyle=orthogonalEdgeStyle;rounded=0;orthogonalLoop=1;jettySize=auto;html=1;exitX=1;exitY=0.25;exitDx=0;exitDy=0;entryX=0;entryY=0.5;entryDx=0;entryDy=0;endArrow=classic;endFill=1;" parent="1" source="LNh73hC8KATJokVMZUqX-74" target="LNh73hC8KATJokVMZUqX-38" edge="1">
          <mxGeometry relative="1" as="geometry">
            <mxPoint x="2950" y="383.75" as="sourcePoint" />
            <mxPoint x="3000" y="381.25" as="targetPoint" />
          </mxGeometry>
        </mxCell>
        <mxCell id="LNh73hC8KATJokVMZUqX-76" style="edgeStyle=orthogonalEdgeStyle;rounded=0;orthogonalLoop=1;jettySize=auto;html=1;exitX=0.5;exitY=0;exitDx=0;exitDy=0;dashed=1;fontFamily=Helvetica;fontSize=12;fontColor=default;endArrow=blockThin;endFill=0;entryX=0.5;entryY=1;entryDx=0;entryDy=0;" parent="1" source="LNh73hC8KATJokVMZUqX-77" target="LNh73hC8KATJokVMZUqX-78" edge="1">
          <mxGeometry relative="1" as="geometry">
            <mxPoint x="1359.5" y="481.25" as="targetPoint" />
          </mxGeometry>
        </mxCell>
        <mxCell id="LNh73hC8KATJokVMZUqX-77" value="&lt;p style=&quot;margin:0px;margin-top:4px;text-align:center;&quot;&gt;&lt;span style=&quot;background-color: initial;&quot;&gt;&lt;b&gt;KvMapStorage&lt;/b&gt;&lt;/span&gt;&lt;/p&gt;&lt;hr size=&quot;1&quot;&gt;&lt;p style=&quot;margin:0px;margin-left:4px;&quot;&gt;&lt;/p&gt;&amp;nbsp; + ..." style="verticalAlign=top;align=left;overflow=fill;fontSize=12;fontFamily=Helvetica;html=1;" parent="1" vertex="1">
          <mxGeometry x="1380" y="521.25" width="179" height="50" as="geometry" />
        </mxCell>
        <mxCell id="LNh73hC8KATJokVMZUqX-78" value="&lt;p style=&quot;margin:0px;margin-top:4px;text-align:center;&quot;&gt;&lt;i&gt;&amp;lt;&amp;lt;Interface&amp;gt;&amp;gt;&lt;/i&gt;&lt;br&gt;&lt;b&gt;MapStorage&lt;/b&gt;&lt;br&gt;&lt;/p&gt;&lt;br&gt;&lt;p style=&quot;margin:0px;margin-left:4px;&quot;&gt;&lt;/p&gt;" style="verticalAlign=top;align=left;overflow=fill;fontSize=12;fontFamily=Helvetica;html=1;" parent="1" vertex="1">
          <mxGeometry x="1389.5" y="450" width="160.5" height="40" as="geometry" />
        </mxCell>
        <mxCell id="LNh73hC8KATJokVMZUqX-79" value="&lt;p style=&quot;margin:0px;margin-top:4px;text-align:center;&quot;&gt;&lt;i&gt;&amp;lt;&amp;lt;Interface&amp;gt;&amp;gt;&lt;/i&gt;&lt;br&gt;&lt;b&gt;ObjectMutator&lt;/b&gt;&lt;br&gt;&lt;/p&gt;&lt;hr size=&quot;1&quot;&gt;&amp;nbsp; + boolean insert(Row row, AppContext context);&lt;br&gt;&amp;nbsp; + boolean update(Row row, AppContext context);&lt;br&gt;&amp;nbsp; + boolean delete(Long id, AppContext context);&lt;br&gt;&lt;p style=&quot;margin:0px;margin-left:4px;&quot;&gt;&lt;/p&gt;" style="verticalAlign=top;align=left;overflow=fill;fontSize=12;fontFamily=Helvetica;html=1;" parent="1" vertex="1">
          <mxGeometry x="630" y="220" width="330" height="100" as="geometry" />
        </mxCell>
        <mxCell id="LNh73hC8KATJokVMZUqX-80" value="&lt;p style=&quot;margin:0px;margin-top:4px;text-align:center;&quot;&gt;&lt;i&gt;&amp;lt;&amp;lt;Interface&amp;gt;&amp;gt;&lt;/i&gt;&lt;br&gt;&lt;b&gt;Cleaner&lt;/b&gt;&lt;br&gt;&lt;/p&gt;&lt;hr size=&quot;1&quot;&gt;&amp;nbsp; + int clearInvalidRow();&lt;br&gt;&amp;nbsp; + boolean revokeRow(RevokeDo revokeDo);&lt;br&gt;&lt;p style=&quot;margin:0px;margin-left:4px;&quot;&gt;&lt;/p&gt;" style="verticalAlign=top;align=left;overflow=fill;fontSize=12;fontFamily=Helvetica;html=1;" parent="1" vertex="1">
          <mxGeometry x="620" y="360" width="330" height="80" as="geometry" />
        </mxCell>
        <mxCell id="LNh73hC8KATJokVMZUqX-83" style="edgeStyle=orthogonalEdgeStyle;rounded=0;orthogonalLoop=1;jettySize=auto;html=1;exitX=1;exitY=0.25;exitDx=0;exitDy=0;entryX=0;entryY=0.5;entryDx=0;entryDy=0;endArrow=classic;endFill=1;" parent="1" source="LNh73hC8KATJokVMZUqX-82" target="LNh73hC8KATJokVMZUqX-71" edge="1">
          <mxGeometry relative="1" as="geometry" />
        </mxCell>
        <mxCell id="LNh73hC8KATJokVMZUqX-82" value="&lt;p style=&quot;margin:0px;margin-top:4px;text-align:center;&quot;&gt;&lt;b&gt;&lt;i&gt;IdGeneratorFactory&lt;/i&gt;&lt;br&gt;&lt;/b&gt;&lt;/p&gt;&lt;hr size=&quot;1&quot;&gt;&lt;p style=&quot;margin:0px;margin-left:4px;&quot;&gt;&lt;/p&gt;&amp;nbsp; + IdGenerator objectIdGenerator();&lt;br&gt;&amp;nbsp; + IdGenerator rowIdGenerator(ObjectId objectId);" style="verticalAlign=top;align=left;overflow=fill;fontSize=12;fontFamily=Helvetica;html=1;" parent="1" vertex="1">
          <mxGeometry x="-80" y="1130" width="330" height="70" as="geometry" />
        </mxCell>
        <mxCell id="LNh73hC8KATJokVMZUqX-84" value="&lt;p style=&quot;margin:0px;margin-top:4px;text-align:center;&quot;&gt;&lt;i&gt;&amp;lt;&amp;lt;Interface&amp;gt;&amp;gt;&lt;/i&gt;&lt;br&gt;&lt;b&gt;RowMutator&lt;/b&gt;&lt;br&gt;&lt;/p&gt;&lt;hr size=&quot;1&quot;&gt;&lt;p style=&quot;margin:0px;margin-left:4px;&quot;&gt;&lt;/p&gt;&amp;nbsp; + int putData(List&amp;lt;Row&amp;gt; rows);&lt;br&gt;&amp;nbsp; +&amp;nbsp;boolean putData(Row row);&lt;br&gt;&amp;nbsp; +&amp;nbsp;boolean delete(long pk);&lt;br&gt;&amp;nbsp; + void commit();" style="verticalAlign=top;align=left;overflow=fill;fontSize=12;fontFamily=Helvetica;html=1;" parent="1" vertex="1">
          <mxGeometry x="2990" y="375" width="330" height="115" as="geometry" />
        </mxCell>
        <mxCell id="LNh73hC8KATJokVMZUqX-85" style="edgeStyle=orthogonalEdgeStyle;rounded=0;orthogonalLoop=1;jettySize=auto;html=1;exitX=1;exitY=0.25;exitDx=0;exitDy=0;entryX=0;entryY=0.25;entryDx=0;entryDy=0;endArrow=classic;endFill=1;" parent="1" source="LNh73hC8KATJokVMZUqX-38" target="LNh73hC8KATJokVMZUqX-84" edge="1">
          <mxGeometry relative="1" as="geometry">
            <mxPoint x="2950" y="358.75" as="sourcePoint" />
            <mxPoint x="3000" y="327.5" as="targetPoint" />
          </mxGeometry>
        </mxCell>
        <mxCell id="LNh73hC8KATJokVMZUqX-86" value="&lt;p style=&quot;margin:0px;margin-top:4px;text-align:center;&quot;&gt;&lt;i&gt;&amp;lt;&amp;lt;Interface&amp;gt;&amp;gt;&lt;/i&gt;&lt;br&gt;&lt;b&gt;RowRetriever&lt;/b&gt;&lt;br&gt;&lt;/p&gt;&lt;hr size=&quot;1&quot;&gt;&lt;p style=&quot;margin:0px;margin-left:4px;&quot;&gt;&lt;/p&gt;&amp;nbsp; + Enumerable&amp;lt;Row&amp;gt; find(FindDo findDo);" style="verticalAlign=top;align=left;overflow=fill;fontSize=12;fontFamily=Helvetica;html=1;" parent="1" vertex="1">
          <mxGeometry x="2850" y="15" width="330" height="65" as="geometry" />
        </mxCell>
        <mxCell id="LNh73hC8KATJokVMZUqX-89" style="edgeStyle=orthogonalEdgeStyle;rounded=0;orthogonalLoop=1;jettySize=auto;html=1;exitX=0.5;exitY=0;exitDx=0;exitDy=0;entryX=0.5;entryY=1;entryDx=0;entryDy=0;endArrow=block;endFill=0;dashed=1;" parent="1" source="LNh73hC8KATJokVMZUqX-88" target="LNh73hC8KATJokVMZUqX-86" edge="1">
          <mxGeometry relative="1" as="geometry" />
        </mxCell>
        <mxCell id="LNh73hC8KATJokVMZUqX-88" value="&lt;p style=&quot;margin:0px;margin-top:4px;text-align:center;&quot;&gt;&lt;b&gt;MixRowRetriever&lt;/b&gt;&lt;br&gt;&lt;/p&gt;&lt;br&gt;&lt;p style=&quot;margin:0px;margin-left:4px;&quot;&gt;&lt;/p&gt;" style="verticalAlign=top;align=left;overflow=fill;fontSize=12;fontFamily=Helvetica;html=1;" parent="1" vertex="1">
          <mxGeometry x="2850" y="127.5" width="330" height="35" as="geometry" />
        </mxCell>
        <mxCell id="LNh73hC8KATJokVMZUqX-90" value="&lt;p style=&quot;margin:0px;margin-top:4px;text-align:center;&quot;&gt;&lt;i&gt;&amp;lt;&amp;lt;Interface&amp;gt;&amp;gt;&lt;/i&gt;&lt;br&gt;&lt;b&gt;Transaction&lt;/b&gt;&lt;br&gt;&lt;/p&gt;&lt;hr size=&quot;1&quot;&gt;&lt;p style=&quot;margin:0px;margin-left:4px;&quot;&gt;&lt;/p&gt;&amp;nbsp; + void rollback();&lt;br&gt;&amp;nbsp; + void commit();&lt;br&gt;&amp;nbsp; +&amp;nbsp;long startTs();&lt;br&gt;&amp;nbsp; + RowRetriever rowRetriever();&lt;br&gt;&amp;nbsp; + RowMutator rowMutator();" style="verticalAlign=top;align=left;overflow=fill;fontSize=12;fontFamily=Helvetica;html=1;fillColor=default;" parent="1" vertex="1">
          <mxGeometry x="2470" y="-5" width="310" height="125" as="geometry" />
        </mxCell>
        <mxCell id="LNh73hC8KATJokVMZUqX-91" value="&lt;p style=&quot;margin:0px;margin-top:4px;text-align:center;&quot;&gt;&lt;b&gt;KvTransaction&lt;/b&gt;&lt;br&gt;&lt;/p&gt;&lt;br&gt;&lt;p style=&quot;margin:0px;margin-left:4px;&quot;&gt;&lt;/p&gt;" style="verticalAlign=top;align=left;overflow=fill;fontSize=12;fontFamily=Helvetica;html=1;" parent="1" vertex="1">
          <mxGeometry x="2470" y="157.5" width="310" height="35" as="geometry" />
        </mxCell>
        <mxCell id="LNh73hC8KATJokVMZUqX-92" style="edgeStyle=orthogonalEdgeStyle;rounded=0;orthogonalLoop=1;jettySize=auto;html=1;exitX=0.5;exitY=0;exitDx=0;exitDy=0;entryX=0.5;entryY=1;entryDx=0;entryDy=0;endArrow=block;endFill=0;dashed=1;" parent="1" source="LNh73hC8KATJokVMZUqX-91" target="LNh73hC8KATJokVMZUqX-90" edge="1">
          <mxGeometry relative="1" as="geometry">
            <mxPoint x="3025" y="137.5" as="sourcePoint" />
            <mxPoint x="3025" y="90" as="targetPoint" />
          </mxGeometry>
        </mxCell>
        <mxCell id="LNh73hC8KATJokVMZUqX-93" value="&lt;p style=&quot;margin:0px;margin-top:4px;text-align:center;&quot;&gt;&lt;i&gt;&amp;lt;&amp;lt;Interface&amp;gt;&amp;gt;&lt;/i&gt;&lt;br&gt;&lt;b&gt;RowMutator&lt;/b&gt;&lt;br&gt;&lt;/p&gt;&lt;hr size=&quot;1&quot;&gt;&lt;p style=&quot;margin:0px;margin-left:4px;&quot;&gt;&lt;/p&gt;&amp;nbsp; + int putData(List&amp;lt;Row&amp;gt; rows);&lt;br&gt;&amp;nbsp; +&amp;nbsp;int putData(Row row);&lt;br&gt;&amp;nbsp; +&amp;nbsp;void delete(long pk);&lt;br&gt;&amp;nbsp; + void commit();" style="verticalAlign=top;align=left;overflow=fill;fontSize=12;fontFamily=Helvetica;html=1;" parent="1" vertex="1">
          <mxGeometry x="3250" y="8.13" width="330" height="111.87" as="geometry" />
        </mxCell>
        <mxCell id="LNh73hC8KATJokVMZUqX-94" value="&lt;p style=&quot;margin:0px;margin-top:4px;text-align:center;&quot;&gt;&lt;b&gt;MemRowMutator&lt;/b&gt;&lt;br&gt;&lt;/p&gt;&lt;br&gt;&lt;p style=&quot;margin:0px;margin-left:4px;&quot;&gt;&lt;/p&gt;" style="verticalAlign=top;align=left;overflow=fill;fontSize=12;fontFamily=Helvetica;html=1;" parent="1" vertex="1">
          <mxGeometry x="3250" y="150" width="330" height="35" as="geometry" />
        </mxCell>
        <mxCell id="LNh73hC8KATJokVMZUqX-95" style="edgeStyle=orthogonalEdgeStyle;rounded=0;orthogonalLoop=1;jettySize=auto;html=1;exitX=0.5;exitY=0;exitDx=0;exitDy=0;entryX=0.5;entryY=1;entryDx=0;entryDy=0;endArrow=block;endFill=0;dashed=1;" parent="1" source="LNh73hC8KATJokVMZUqX-94" target="LNh73hC8KATJokVMZUqX-93" edge="1">
          <mxGeometry relative="1" as="geometry">
            <mxPoint x="3025" y="137.5" as="sourcePoint" />
            <mxPoint x="3025" y="90" as="targetPoint" />
          </mxGeometry>
        </mxCell>
        <mxCell id="ny784b2R2hhAhz36rXbY-1" value="&lt;p style=&quot;margin:0px;margin-top:4px;text-align:center;&quot;&gt;&lt;b&gt;&lt;i&gt;ObjectMetadata&lt;/i&gt;&lt;br&gt;&lt;/b&gt;&lt;/p&gt;&lt;hr size=&quot;1&quot;&gt;&lt;p style=&quot;margin:0px;margin-left:4px;&quot;&gt;&lt;/p&gt;&amp;nbsp; + Fields objectIdGenerator();&lt;br&gt;&amp;nbsp; + IdGenerator rowIdGenerator(ObjectId objectId);" style="verticalAlign=top;align=left;overflow=fill;fontSize=12;fontFamily=Helvetica;html=1;" parent="1" vertex="1">
          <mxGeometry x="60" y="1440" width="330" height="70" as="geometry" />
        </mxCell>
        <mxCell id="ny784b2R2hhAhz36rXbY-2" value="ObjectMetadata" style="swimlane;fontStyle=1;align=center;verticalAlign=top;childLayout=stackLayout;horizontal=1;startSize=26;horizontalStack=0;resizeParent=1;resizeParentMax=0;resizeLast=0;collapsible=1;marginBottom=0;" parent="1" vertex="1">
          <mxGeometry x="450" y="1342" width="280" height="150" as="geometry" />
        </mxCell>
        <mxCell id="ny784b2R2hhAhz36rXbY-3" value="- fields: Field[]&#xa;- indexes: Index[]&#xa;" style="text;strokeColor=none;fillColor=none;align=left;verticalAlign=top;spacingLeft=4;spacingRight=4;overflow=hidden;rotatable=0;points=[[0,0.5],[1,0.5]];portConstraint=eastwest;" parent="ny784b2R2hhAhz36rXbY-2" vertex="1">
          <mxGeometry y="26" width="280" height="64" as="geometry" />
        </mxCell>
        <mxCell id="ny784b2R2hhAhz36rXbY-4" value="" style="line;strokeWidth=1;fillColor=none;align=left;verticalAlign=middle;spacingTop=-1;spacingLeft=3;spacingRight=3;rotatable=0;labelPosition=right;points=[];portConstraint=eastwest;" parent="ny784b2R2hhAhz36rXbY-2" vertex="1">
          <mxGeometry y="90" width="280" height="8" as="geometry" />
        </mxCell>
        <mxCell id="ny784b2R2hhAhz36rXbY-5" value="+ getField(String name): Field" style="text;strokeColor=none;fillColor=none;align=left;verticalAlign=top;spacingLeft=4;spacingRight=4;overflow=hidden;rotatable=0;points=[[0,0.5],[1,0.5]];portConstraint=eastwest;" parent="ny784b2R2hhAhz36rXbY-2" vertex="1">
          <mxGeometry y="98" width="280" height="52" as="geometry" />
        </mxCell>
        <mxCell id="ny784b2R2hhAhz36rXbY-6" value="RelationshipMetadata" style="swimlane;fontStyle=1;align=center;verticalAlign=top;childLayout=stackLayout;horizontal=1;startSize=26;horizontalStack=0;resizeParent=1;resizeParentMax=0;resizeLast=0;collapsible=1;marginBottom=0;" parent="1" vertex="1">
          <mxGeometry x="450" y="1660" width="210" height="120" as="geometry" />
        </mxCell>
        <mxCell id="ny784b2R2hhAhz36rXbY-7" value="- from: ObjectMetadata&#xa;- to: ObjectMetadata&#xa;- type: RelationType&#xa;- fromLabel: String&#xa;- toLabel: String&#xa;- id: int" style="text;strokeColor=none;fillColor=none;align=left;verticalAlign=top;spacingLeft=4;spacingRight=4;overflow=hidden;rotatable=0;points=[[0,0.5],[1,0.5]];portConstraint=eastwest;" parent="ny784b2R2hhAhz36rXbY-6" vertex="1">
          <mxGeometry y="26" width="210" height="94" as="geometry" />
        </mxCell>
        <mxCell id="ny784b2R2hhAhz36rXbY-10" value="Relationship" style="swimlane;fontStyle=1;align=center;verticalAlign=top;childLayout=stackLayout;horizontal=1;startSize=26;horizontalStack=0;resizeParent=1;resizeParentMax=0;resizeLast=0;collapsible=1;marginBottom=0;" parent="1" vertex="1">
          <mxGeometry x="821.56" y="1704" width="160" height="76" as="geometry" />
        </mxCell>
        <mxCell id="ny784b2R2hhAhz36rXbY-11" value="- refersTo: ObjectMetadata&#xa;- type: RelationType&#xa;- label: String" style="text;strokeColor=none;fillColor=none;align=left;verticalAlign=top;spacingLeft=4;spacingRight=4;overflow=hidden;rotatable=0;points=[[0,0.5],[1,0.5]];portConstraint=eastwest;" parent="ny784b2R2hhAhz36rXbY-10" vertex="1">
          <mxGeometry y="26" width="160" height="50" as="geometry" />
        </mxCell>
        <mxCell id="ny784b2R2hhAhz36rXbY-16" style="edgeStyle=orthogonalEdgeStyle;rounded=0;orthogonalLoop=1;jettySize=auto;html=1;exitX=0.5;exitY=0;exitDx=0;exitDy=0;entryX=0.5;entryY=1;entryDx=0;entryDy=0;endArrow=block;endFill=0;" parent="1" source="ny784b2R2hhAhz36rXbY-12" target="ny784b2R2hhAhz36rXbY-14" edge="1">
          <mxGeometry relative="1" as="geometry" />
        </mxCell>
        <mxCell id="ny784b2R2hhAhz36rXbY-12" value="RelationField" style="swimlane;fontStyle=1;align=center;verticalAlign=top;childLayout=stackLayout;horizontal=1;startSize=26;horizontalStack=0;resizeParent=1;resizeParentMax=0;resizeLast=0;collapsible=1;marginBottom=0;" parent="1" vertex="1">
          <mxGeometry x="821.56" y="1410" width="160" height="100" as="geometry" />
        </mxCell>
        <mxCell id="ny784b2R2hhAhz36rXbY-13" value="- refersTo: ObjectMetadata&#xa;- relationType: RelationType&#xa;- name: String&#xa;- indexId: int " style="text;strokeColor=none;fillColor=none;align=left;verticalAlign=top;spacingLeft=4;spacingRight=4;overflow=hidden;rotatable=0;points=[[0,0.5],[1,0.5]];portConstraint=eastwest;" parent="ny784b2R2hhAhz36rXbY-12" vertex="1">
          <mxGeometry y="26" width="160" height="74" as="geometry" />
        </mxCell>
        <mxCell id="ny784b2R2hhAhz36rXbY-14" value="Field" style="swimlane;fontStyle=1;align=center;verticalAlign=top;childLayout=stackLayout;horizontal=1;startSize=26;horizontalStack=0;resizeParent=1;resizeParentMax=0;resizeLast=0;collapsible=1;marginBottom=0;" parent="1" vertex="1">
          <mxGeometry x="821.56" y="1330" width="160" height="60" as="geometry" />
        </mxCell>
        <mxCell id="glc4zlcwZNFRsj1Jf1xO-2" value="- type: FieldType" style="text;strokeColor=none;fillColor=none;align=left;verticalAlign=top;spacingLeft=4;spacingRight=4;overflow=hidden;rotatable=0;points=[[0,0.5],[1,0.5]];portConstraint=eastwest;" parent="ny784b2R2hhAhz36rXbY-14" vertex="1">
          <mxGeometry y="26" width="160" height="34" as="geometry" />
        </mxCell>
        <mxCell id="ny784b2R2hhAhz36rXbY-17" style="edgeStyle=orthogonalEdgeStyle;rounded=0;orthogonalLoop=1;jettySize=auto;html=1;exitX=1;exitY=0.5;exitDx=0;exitDy=0;entryX=0;entryY=0.5;entryDx=0;entryDy=0;endArrow=classic;endFill=1;" parent="1" source="ny784b2R2hhAhz36rXbY-3" target="ny784b2R2hhAhz36rXbY-13" edge="1">
          <mxGeometry relative="1" as="geometry" />
        </mxCell>
        <mxCell id="ny784b2R2hhAhz36rXbY-19" style="edgeStyle=orthogonalEdgeStyle;rounded=0;orthogonalLoop=1;jettySize=auto;html=1;exitX=1;exitY=0.5;exitDx=0;exitDy=0;entryX=0;entryY=0.5;entryDx=0;entryDy=0;endArrow=classic;endFill=1;dashed=1;" parent="1" source="ny784b2R2hhAhz36rXbY-7" target="ny784b2R2hhAhz36rXbY-11" edge="1">
          <mxGeometry relative="1" as="geometry" />
        </mxCell>
        <mxCell id="ny784b2R2hhAhz36rXbY-21" value="Index" style="swimlane;fontStyle=1;align=center;verticalAlign=top;childLayout=stackLayout;horizontal=1;startSize=26;horizontalStack=0;resizeParent=1;resizeParentMax=0;resizeLast=0;collapsible=1;marginBottom=0;" parent="1" vertex="1">
          <mxGeometry x="821.56" y="1570" width="160" height="110" as="geometry" />
        </mxCell>
        <mxCell id="ny784b2R2hhAhz36rXbY-22" value="- indexId: int&#xa;- name: String&#xa;- targetIndexes: int[]&#xa;- unique: boolean&#xa;- type: Type" style="text;strokeColor=none;fillColor=none;align=left;verticalAlign=top;spacingLeft=4;spacingRight=4;overflow=hidden;rotatable=0;points=[[0,0.5],[1,0.5]];portConstraint=eastwest;" parent="ny784b2R2hhAhz36rXbY-21" vertex="1">
          <mxGeometry y="26" width="160" height="84" as="geometry" />
        </mxCell>
        <mxCell id="ny784b2R2hhAhz36rXbY-26" value="Index.Type" style="swimlane;fontStyle=1;align=center;verticalAlign=top;childLayout=stackLayout;horizontal=1;startSize=26;horizontalStack=0;resizeParent=1;resizeParentMax=0;resizeLast=0;collapsible=1;marginBottom=0;" parent="1" vertex="1">
          <mxGeometry x="1006" y="1570" width="160" height="100" as="geometry" />
        </mxCell>
        <mxCell id="ny784b2R2hhAhz36rXbY-27" value="+ NORMAL&#xa;+ RELATION" style="text;strokeColor=none;fillColor=none;align=left;verticalAlign=top;spacingLeft=4;spacingRight=4;overflow=hidden;rotatable=0;points=[[0,0.5],[1,0.5]];portConstraint=eastwest;" parent="ny784b2R2hhAhz36rXbY-26" vertex="1">
          <mxGeometry y="26" width="160" height="74" as="geometry" />
        </mxCell>
      </root>
    </mxGraphModel>
  </diagram>
  <diagram id="hXkyWg5JCqY-ZruxbVaI" name="架构图">
    <mxGraphModel dx="946" dy="645" grid="1" gridSize="10" guides="1" tooltips="1" connect="1" arrows="1" fold="1" page="1" pageScale="1" pageWidth="827" pageHeight="1169" math="0" shadow="0">
      <root>
        <mxCell id="0" />
        <mxCell id="1" parent="0" />
        <mxCell id="crU9PU6pd7iUyyGZG0DH-18" value="" style="rounded=0;whiteSpace=wrap;html=1;dashed=1;" parent="1" vertex="1">
          <mxGeometry x="14" y="600" width="720" height="140" as="geometry" />
        </mxCell>
        <mxCell id="crU9PU6pd7iUyyGZG0DH-16" value="" style="rounded=0;whiteSpace=wrap;html=1;dashed=1;" parent="1" vertex="1">
          <mxGeometry x="14" y="310" width="720" height="280" as="geometry" />
        </mxCell>
        <mxCell id="crU9PU6pd7iUyyGZG0DH-1" value="TenantApplication" style="rounded=0;whiteSpace=wrap;html=1;" parent="1" vertex="1">
          <mxGeometry x="240" y="335" width="470" height="50" as="geometry" />
        </mxCell>
        <mxCell id="crU9PU6pd7iUyyGZG0DH-2" value="MetadataManager" style="rounded=0;whiteSpace=wrap;html=1;" parent="1" vertex="1">
          <mxGeometry x="240" y="395" width="116" height="90" as="geometry" />
        </mxCell>
        <mxCell id="crU9PU6pd7iUyyGZG0DH-3" value="" style="rounded=0;whiteSpace=wrap;html=1;" parent="1" vertex="1">
          <mxGeometry x="438" y="395" width="200" height="90" as="geometry" />
        </mxCell>
        <mxCell id="crU9PU6pd7iUyyGZG0DH-4" value="Object&lt;br&gt;Metadata&lt;br&gt;Manager" style="rounded=0;whiteSpace=wrap;html=1;" parent="1" vertex="1">
          <mxGeometry x="369.5" y="395" width="56.5" height="170" as="geometry" />
        </mxCell>
        <mxCell id="crU9PU6pd7iUyyGZG0DH-5" value="MetadataStorage" style="rounded=0;whiteSpace=wrap;html=1;" parent="1" vertex="1">
          <mxGeometry x="240" y="495" width="116" height="70" as="geometry" />
        </mxCell>
        <mxCell id="crU9PU6pd7iUyyGZG0DH-7" value="Transaction" style="rounded=0;whiteSpace=wrap;html=1;" parent="1" vertex="1">
          <mxGeometry x="438" y="495" width="200" height="30" as="geometry" />
        </mxCell>
        <mxCell id="crU9PU6pd7iUyyGZG0DH-8" value="KvMetadataStorage" style="rounded=0;whiteSpace=wrap;html=1;" parent="1" vertex="1">
          <mxGeometry x="240" y="610" width="130" height="30" as="geometry" />
        </mxCell>
        <mxCell id="crU9PU6pd7iUyyGZG0DH-9" value="RocksDB" style="rounded=0;whiteSpace=wrap;html=1;" parent="1" vertex="1">
          <mxGeometry x="240" y="695" width="470" height="30" as="geometry" />
        </mxCell>
        <mxCell id="crU9PU6pd7iUyyGZG0DH-10" value="Driver" style="rounded=0;whiteSpace=wrap;html=1;" parent="1" vertex="1">
          <mxGeometry x="284" y="260" width="426" height="40" as="geometry" />
        </mxCell>
        <mxCell id="crU9PU6pd7iUyyGZG0DH-11" value="SDK" style="rounded=0;whiteSpace=wrap;html=1;" parent="1" vertex="1">
          <mxGeometry x="284" y="190" width="121" height="60" as="geometry" />
        </mxCell>
        <mxCell id="crU9PU6pd7iUyyGZG0DH-12" value="Rest" style="rounded=0;whiteSpace=wrap;html=1;" parent="1" vertex="1">
          <mxGeometry x="436.5" y="190" width="121" height="60" as="geometry" />
        </mxCell>
        <mxCell id="crU9PU6pd7iUyyGZG0DH-13" value="..." style="rounded=0;whiteSpace=wrap;html=1;" parent="1" vertex="1">
          <mxGeometry x="589" y="190" width="121" height="60" as="geometry" />
        </mxCell>
        <mxCell id="crU9PU6pd7iUyyGZG0DH-17" value="&lt;h1&gt;Core&lt;/h1&gt;&lt;p&gt;核心层&lt;/p&gt;&lt;p&gt;TenantApplication对外提供原生租户隔离系统&lt;/p&gt;&lt;p&gt;MetadataManager提供元数据相关操作能力&lt;/p&gt;&lt;p&gt;&lt;span style=&quot;background-color: initial;&quot;&gt;ObjectManager提供数据读写能力，其中查询部分由calcite驱动，Object所有数据读写均通过事务方式实现&lt;/span&gt;&lt;br&gt;&lt;/p&gt;" style="text;html=1;strokeColor=none;fillColor=none;spacing=5;spacingTop=-20;whiteSpace=wrap;overflow=hidden;rounded=0;dashed=1;" parent="1" vertex="1">
          <mxGeometry x="24" y="340" width="186" height="235" as="geometry" />
        </mxCell>
        <mxCell id="crU9PU6pd7iUyyGZG0DH-19" value="calcite" style="rounded=0;whiteSpace=wrap;html=1;" parent="1" vertex="1">
          <mxGeometry x="458" y="450" width="75" height="30" as="geometry" />
        </mxCell>
        <mxCell id="crU9PU6pd7iUyyGZG0DH-20" value="KernelContext" style="rounded=0;whiteSpace=wrap;html=1;" parent="1" vertex="1">
          <mxGeometry x="596" y="265" width="99" height="30" as="geometry" />
        </mxCell>
        <mxCell id="crU9PU6pd7iUyyGZG0DH-21" value="RecordMutator" style="rounded=0;whiteSpace=wrap;html=1;" parent="1" vertex="1">
          <mxGeometry x="438" y="535" width="88" height="30" as="geometry" />
        </mxCell>
        <mxCell id="crU9PU6pd7iUyyGZG0DH-22" value="RecordRetriever" style="rounded=0;whiteSpace=wrap;html=1;" parent="1" vertex="1">
          <mxGeometry x="538" y="535" width="100" height="30" as="geometry" />
        </mxCell>
        <mxCell id="crU9PU6pd7iUyyGZG0DH-24" value="ObjectManager" style="text;html=1;strokeColor=none;fillColor=none;align=center;verticalAlign=middle;whiteSpace=wrap;rounded=0;" parent="1" vertex="1">
          <mxGeometry x="489" y="410" width="98" height="30" as="geometry" />
        </mxCell>
        <mxCell id="crU9PU6pd7iUyyGZG0DH-26" value="Kv" style="rounded=0;whiteSpace=wrap;html=1;" parent="1" vertex="1">
          <mxGeometry x="240" y="655" width="470" height="30" as="geometry" />
        </mxCell>
        <mxCell id="crU9PU6pd7iUyyGZG0DH-27" value="KvTransaction" style="rounded=0;whiteSpace=wrap;html=1;" parent="1" vertex="1">
          <mxGeometry x="436" y="610" width="200" height="30" as="geometry" />
        </mxCell>
        <mxCell id="crU9PU6pd7iUyyGZG0DH-28" value="Statistics" style="rounded=0;whiteSpace=wrap;html=1;" parent="1" vertex="1">
          <mxGeometry x="650" y="396" width="60" height="169" as="geometry" />
        </mxCell>
        <mxCell id="tr0ETLENHwsKgXPw0Iyq-1" value="&lt;h1&gt;Storage&lt;/h1&gt;&lt;p&gt;存储实现层&amp;nbsp;&lt;/p&gt;&lt;p&gt;基于Kv实现MetadataStroage、Transaction等core中定义的存储能力&lt;/p&gt;" style="text;html=1;strokeColor=none;fillColor=none;spacing=5;spacingTop=-20;whiteSpace=wrap;overflow=hidden;rounded=0;dashed=1;" parent="1" vertex="1">
          <mxGeometry x="24" y="605" width="190" height="120" as="geometry" />
        </mxCell>
        <mxCell id="tr0ETLENHwsKgXPw0Iyq-4" value="&lt;h1&gt;Aquarius&lt;/h1&gt;" style="text;html=1;strokeColor=none;fillColor=none;spacing=5;spacingTop=-20;whiteSpace=wrap;overflow=hidden;rounded=0;dashed=1;" parent="1" vertex="1">
          <mxGeometry x="24" y="190" width="190" height="50" as="geometry" />
        </mxCell>
        <mxCell id="vrEO4HlANo074NmxGq4Y-4" value="MObject" style="rounded=0;whiteSpace=wrap;html=1;" vertex="1" parent="1">
          <mxGeometry x="543" y="450" width="75" height="30" as="geometry" />
        </mxCell>
        <mxCell id="vrEO4HlANo074NmxGq4Y-5" value="dict" style="rounded=0;whiteSpace=wrap;html=1;" vertex="1" parent="1">
          <mxGeometry x="648" y="610" width="62" height="30" as="geometry" />
        </mxCell>
      </root>
    </mxGraphModel>
  </diagram>
</mxfile>
